<svg id="Layer_5" enable-background="new 0 0 64 64" height="512" viewBox="0 0 64 64" width="512" xmlns="http://www.w3.org/2000/svg"><g><g><g><path d="m48 32v26c0 2.21-1.79 4-4 4h-38c-2.21 0-4-1.79-4-4v-50c0-2.21 1.79-4 4-4h8v4h-7c-.55 0-1 .45-1 1v48c0 .55.45 1 1 1h29l8-8v-14z" fill="#f5e0cd"/></g><g><path d="m20 4h10v4h-10z" fill="#f5e0cd"/></g><g><path d="m48 11.52c-2.17 1.45-3.67 3.81-3.95 6.54l-.05-.01v-9.05c0-.55-.45-1-1-1h-7v-4h8c2.21 0 4 1.79 4 4z" fill="#f5e0cd"/></g><g><path d="m43 8h-36c-.55 0-1 .45-1 1v48c0 .55.45 1 1 1h29v-8h8v-41c0-.55-.45-1-1-1z" fill="#e6e9ed"/></g><g><path d="m36 8v1c0 .55-.45 1-1 1h-4c-.55 0-1-.45-1-1v-1-4-1c0-.55.45-1 1-1h4c.55 0 1 .45 1 1v1z" fill="#b4dd7f"/></g><g><path d="m20 8v1c0 .55-.45 1-1 1h-4c-.55 0-1-.45-1-1v-1-4-1c0-.55.45-1 1-1h4c.55 0 1 .45 1 1v1z" fill="#b4dd7f"/></g><g><path d="m44 50-8 8v-8z" fill="#ff826e"/></g><g><path d="m10 46h4v4h-4z" fill="#fcd770"/></g><g><path d="m10 38h4v4h-4z" fill="#fcd770"/></g><g><path d="m10 30h4v4h-4z" fill="#fcd770"/></g><g><path d="m10 22h4v4h-4z" fill="#fcd770"/></g><g><path d="m10 14h4v4h-4z" fill="#fcd770"/></g><g><path d="m29 51-8.74 2.91c-.17.06-.35.09-.54.09-.95 0-1.72-.77-1.72-1.72 0-.19.03-.37.09-.54l2.91-8.74 4 4z" fill="#aab2bd"/></g><g><path d="m52.05 27.95-4.05 4.05-4 4-15 15-4-4 21.64-21.64c1.41 1.42 3.31 2.37 5.41 2.59z" fill="#b4dd7f"/></g><g><path d="m46.64 25.36-21.64 21.64-4-4 23.05-23.05c.22 2.1 1.17 4 2.59 5.41z" fill="#fcd770"/></g><g><path d="m53 10c4.97 0 9 4.03 9 9s-4.03 9-9 9c-.32 0-.64-.02-.95-.05-2.1-.22-4-1.17-5.41-2.59-1.42-1.41-2.37-3.31-2.59-5.41-.03-.31-.05-.63-.05-.95s.02-.63.05-.94c.28-2.73 1.78-5.09 3.95-6.54 1.43-.96 3.15-1.52 5-1.52z" fill="#ff826e"/></g></g><g><path d="m57.293 15.293-6.293 6.293-1.293-1.293-1.414 1.414 2.707 2.707 7.707-7.707z"/><path d="m53 9c-1.422 0-2.774.303-4 .841v-1.841c0-2.757-2.243-5-5-5h-7c0-1.103-.897-2-2-2h-4c-1.103 0-2 .897-2 2h-8c0-1.103-.897-2-2-2h-4c-1.103 0-2 .897-2 2h-7c-2.757 0-5 2.243-5 5v50c0 2.757 2.243 5 5 5h38c2.757 0 5-2.243 5-5v-25.586l3.442-3.442c.186.01.37.028.558.028 5.514 0 10-4.486 10-10s-4.486-10-10-10zm-9-4c1.654 0 3 1.346 3 3v3.019c-.758.571-1.431 1.246-2 2.006v-4.025c0-1.103-.897-2-2-2h-6v-2zm-22.563 39.851 5.712 5.712-7.198 2.399c-.464.157-.952-.21-.951-.683 0-.076.013-.156.036-.228zm.977-1.851 21.035-21.035c.386 1.24 1.008 2.377 1.813 3.359l-20.262 20.262zm8.586-40h4l.001 6h-4.001zm-2 2v2h-8v-2zm-14-2h4l.001 6h-4.001zm4 8c1.103 0 2-.897 2-2h8c0 1.103.897 2 2 2h4c1.103 0 2-.897 2-2h6v9.045h.048c-.03.315-.048.633-.048.955 0 .188.018.372.028.558l-22.902 22.902-2.988 8.962c-.091.278-.138.566-.138.857 0 1.5 1.221 2.721 2.721 2.721.291 0 .579-.047.86-.14l8.959-2.986 13.46-13.46v10.586h-8v8h-28v-48h6c0 1.103.897 2 2 2zm22.586 40-4.586 4.586v-4.586zm5.414 7c0 1.654-1.346 3-3 3h-38c-1.654 0-3-1.346-3-3v-50c0-1.654 1.346-3 3-3h7v2h-6c-1.103 0-2 .897-2 2v48c0 1.103.897 2 2 2h29.414l8.586-8.586v-14l2-2zm-18-8.414-2.586-2.586 20.261-20.262c.982.804 2.119 1.427 3.359 1.813zm24-22.586c-4.411 0-8-3.589-8-8s3.589-8 8-8 8 3.589 8 8-3.589 8-8 8z"/><path d="m9 19h6v-6h-6zm2-4h2v2h-2z"/><path d="m9 27h6v-6h-6zm2-4h2v2h-2z"/><path d="m9 35h6v-6h-6zm2-4h2v2h-2z"/><path d="m9 43h6v-6h-6zm2-4h2v2h-2z"/><path d="m9 51h6v-6h-6zm2-4h2v2h-2z"/><path d="m17 13h24v2h-24z"/><path d="m17 17h24v2h-24z"/><path d="m17 21h12v2h-12z"/><path d="m17 25h12v2h-12z"/><path d="m17 29h10v2h-10z"/><path d="m17 33h10v2h-10z"/></g></g></svg>